<?xml version="1.0" standalone="no"?>
<!DOCTYPE svg PUBLIC "-//W3C//DTD SVG 20010904//EN"
 "http://www.w3.org/TR/2001/REC-SVG-20010904/DTD/svg10.dtd">
<svg version="1.0" xmlns="http://www.w3.org/2000/svg"
 width="413.000000pt" height="413.000000pt" viewBox="0 0 413.000000 413.000000"
 preserveAspectRatio="xMidYMid meet">
<metadata>
Created by potrace 1.11, written by Peter Selinger 2001-2013
</metadata>
<g transform="translate(0.000000,413.000000) scale(0.100000,-0.100000)"
fill="#000000" stroke="none">
<path d="M1809 2905 c-45 -81 -81 -132 -125 -176 l-62 -61 -31 18 c-17 10 -32
16 -34 13 -61 -81 -209 -254 -384 -447 -26 -30 -53 -68 -61 -85 -19 -45 -60
-76 -102 -77 l-35 0 38 25 c20 14 44 39 53 56 9 17 33 50 54 73 20 22 49 64
63 92 14 28 33 54 42 58 25 9 15 28 -48 84 l-57 52 -88 -61 c-193 -135 -181
-129 -236 -117 l-49 10 -100 -108 c-133 -144 -254 -262 -305 -299 -50 -36
-127 -133 -155 -195 -59 -132 -63 -267 -11 -387 8 -17 14 -34 14 -38 0 -15 61
-94 111 -143 128 -124 335 -184 524 -152 108 19 149 28 203 44 111 34 159 46
217 57 33 6 78 15 100 19 22 5 65 14 95 20 30 7 74 16 98 21 226 48 287 58
517 80 239 22 280 22 790 0 88 -4 252 -7 365 -6 225 2 257 8 387 78 76 40 191
156 226 228 122 246 44 513 -193 662 -97 60 -253 100 -357 90 -51 -5 -52 -5
-125 55 -40 34 -102 95 -138 137 l-65 77 -55 -6 c-46 -5 -64 -2 -108 19 -30
14 -58 25 -62 25 -10 0 -130 -138 -130 -150 0 -4 52 -30 116 -56 103 -43 119
-54 149 -94 40 -56 52 -90 32 -90 -8 0 -29 24 -45 53 -37 66 -42 70 -122 95
-128 41 -144 51 -208 138 -65 88 -141 145 -166 125 -11 -9 -20 4 -42 59 -28
68 -32 72 -99 111 l-70 41 -43 -21 c-39 -19 -45 -20 -65 -6 -13 8 -34 34 -46
57 -23 42 -89 118 -102 118 -4 0 -35 -52 -70 -115z m71 -135 c0 -41 6 -72 15
-84 18 -23 19 -47 4 -99 -8 -29 -21 -45 -54 -65 -41 -25 -45 -30 -51 -82 -13
-103 -137 -257 -226 -280 -23 -6 -74 -24 -113 -40 l-70 -29 -3 35 c-4 38 -10
41 -53 18 -17 -8 -33 -14 -35 -11 -5 5 25 167 34 184 4 6 63 75 131 152 124
141 125 141 149 125 24 -16 25 -15 111 70 48 48 100 111 116 141 35 64 45 57
45 -35z m180 -186 c0 -7 -4 -15 -9 -18 -11 -7 -21 17 -21 47 1 22 1 22 15 3 8
-11 15 -25 15 -32z m-44 -83 c2 -2 10 2 19 9 25 20 26 8 5 -47 -14 -37 -18
-67 -15 -105 5 -48 3 -44 -25 47 -24 78 -29 110 -24 145 l7 45 15 -45 c8 -25
16 -47 18 -49z m847 34 l58 -1 58 -67 c31 -36 81 -85 110 -109 l53 -43 -34 -7
c-30 -6 -41 0 -120 60 -49 36 -88 68 -88 71 0 3 -9 17 -19 31 -19 24 -19 24
-41 5 l-22 -20 -44 50 c-24 27 -44 53 -44 57 0 5 17 0 38 -9 20 -10 63 -18 95
-18z m-1829 -147 c-32 -56 -84 -103 -149 -135 -41 -20 -79 -47 -88 -62 l-16
-26 -1 30 c0 17 -4 36 -8 43 -11 17 -53 -29 -85 -94 -23 -46 -29 -51 -74 -61
-26 -6 -49 -10 -50 -9 -1 1 45 52 102 113 l104 110 46 -10 46 -11 87 61 c97
68 96 68 86 51z m1621 -111 l37 -59 -31 23 c-29 21 -32 21 -49 6 -13 -12 -21
-14 -29 -6 -8 8 -15 4 -27 -12 -15 -23 -16 -23 -16 -3 0 19 18 83 26 93 2 2
10 -2 19 -9 13 -11 15 -8 15 16 0 33 6 29 55 -49z m772 -33 c174 -40 324 -180
358 -332 3 -17 7 -69 7 -116 1 -77 -2 -91 -35 -161 -62 -130 -167 -217 -327
-271 -49 -16 -84 -18 -330 -15 -151 1 -306 4 -345 6 -156 8 -636 5 -720 -4
-157 -17 -281 -38 -475 -81 -52 -11 -115 -25 -140 -30 -53 -11 -278 -59 -335
-71 -22 -5 -62 -13 -90 -19 -27 -5 -81 -17 -120 -25 -85 -20 -224 -22 -284 -5
-141 38 -272 140 -324 251 -30 64 -37 103 -38 205 0 197 168 380 400 434 54
13 295 11 901 -6 291 -8 539 11 785 61 88 18 281 59 405 85 544 118 582 123
707 94z"/>
<path d="M3047 2056 c-22 -7 -42 -18 -47 -26 -4 -8 -24 -96 -44 -195 -40 -196
-46 -208 -113 -221 -44 -8 -63 12 -63 66 0 110 97 258 117 180 8 -30 43 -26
43 5 0 43 -70 54 -135 22 -68 -33 -115 -126 -115 -226 0 -58 -9 -74 -37 -64
-18 7 -16 43 12 168 13 60 22 111 19 114 -2 2 -25 0 -51 -5 l-47 -9 -29 -143
c-27 -134 -28 -144 -13 -167 21 -32 76 -34 124 -5 25 15 37 18 52 10 29 -16
91 -11 138 10 36 16 42 17 42 4 0 -12 9 -14 48 -8 26 3 48 7 49 8 2 2 11 44
22 95 19 95 30 113 66 109 18 -3 20 -11 20 -81 0 -66 3 -81 19 -93 27 -20 65
-17 104 6 25 15 37 18 52 10 47 -25 147 -3 184 41 40 47 42 88 12 177 -14 43
-26 92 -26 110 0 17 -1 32 -3 32 -2 0 -24 -7 -50 -16 -42 -14 -48 -20 -57 -57
-23 -87 -33 -109 -61 -134 -19 -18 -30 -39 -35 -69 -4 -26 -12 -44 -19 -44
-20 0 -22 18 -12 72 12 58 -6 93 -53 105 l-31 8 62 48 62 47 -33 0 c-26 0 -47
-12 -97 -56 -35 -31 -65 -55 -67 -53 -2 2 7 54 20 114 13 61 24 113 24 118 0
9 -5 8 -53 -7z m352 -327 c1 -39 -34 -79 -69 -79 -42 0 -46 17 -11 47 31 27
43 77 21 85 -6 2 -3 24 7 55 l17 53 17 -68 c10 -37 18 -79 18 -93z"/>
<path d="M2380 2010 c-30 -5 -90 -8 -132 -9 -143 -2 -243 -64 -269 -165 -10
-40 -13 -44 -26 -30 -13 13 -18 13 -37 1 -27 -18 -27 -48 0 -62 19 -9 20 -13
9 -65 -22 -108 -63 -170 -110 -170 -14 0 -25 3 -25 8 0 4 13 67 28 140 l29
132 -31 0 c-70 0 -70 0 -99 -143 -28 -137 -39 -157 -84 -157 -18 0 -23 6 -23
24 0 23 34 202 46 239 4 13 -1 17 -23 17 -58 0 -72 -10 -86 -59 -9 -35 -18
-47 -35 -49 -18 -3 -22 1 -22 23 0 27 -40 75 -62 75 -32 0 -90 -23 -118 -47
-49 -41 -73 -98 -78 -185 -5 -78 -14 -94 -47 -82 -19 8 -19 23 0 99 20 83 18
118 -6 149 -25 32 -59 34 -105 5 -30 -18 -34 -19 -34 -4 0 15 -7 16 -47 10
-27 -4 -49 -8 -49 -8 -1 -1 -17 -80 -36 -174 l-36 -173 37 0 c20 0 42 4 50 9
8 5 26 66 43 147 28 135 36 154 70 154 32 0 35 -28 15 -131 -18 -92 -19 -100
-3 -124 23 -35 83 -35 124 0 29 24 29 24 47 5 20 -22 67 -26 108 -11 53 20
107 101 122 183 4 20 14 39 22 43 23 8 25 2 14 -46 -15 -66 -13 -125 5 -143
25 -25 76 -20 122 14 l42 30 20 -20 c24 -24 79 -26 119 -6 69 36 126 142 138
258 4 43 9 55 15 44 5 -9 20 -16 33 -16 23 0 25 4 25 45 0 84 28 124 101 145
24 7 29 6 29 -9 0 -10 -20 -114 -45 -231 -25 -117 -45 -215 -45 -218 0 -6 89
4 95 10 3 2 25 103 51 224 25 120 48 221 50 223 2 2 34 3 71 2 38 -1 73 2 80
7 7 4 19 24 28 45 17 42 23 40 -75 27z m-950 -305 c9 -11 8 -19 -4 -37 -20
-28 -20 -47 -2 -62 12 -9 12 -19 2 -59 -20 -76 -65 -109 -96 -72 -27 33 6 181
50 225 24 24 34 25 50 5z"/>
<path d="M2616 1998 c-30 -42 -14 -78 35 -78 49 0 79 56 47 88 -20 20 -65 14
-82 -10z"/>
<path d="M2458 1844 c-16 -8 -28 -10 -28 -4 0 12 -87 14 -94 1 -9 -13 -77
-344 -72 -348 5 -5 96 7 96 13 0 15 53 253 60 270 13 33 49 38 60 8 5 -13 14
-24 20 -24 16 0 60 47 60 63 0 37 -53 48 -102 21z"/>
<path d="M720 1834 c-50 -21 -99 -72 -106 -110 -8 -41 15 -84 66 -126 55 -43
80 -87 80 -137 0 -47 -21 -95 -45 -105 -52 -20 -95 8 -95 62 0 31 37 72 66 72
21 0 17 18 -6 30 -29 16 -83 -4 -115 -41 -35 -43 -34 -92 4 -130 26 -26 36
-29 93 -29 146 0 237 96 209 221 -8 35 -23 56 -80 109 -59 55 -71 71 -71 97 0
57 86 99 110 53 8 -14 7 -29 -4 -54 -18 -44 0 -55 38 -25 35 27 37 90 4 113
-28 20 -102 20 -148 0z"/>
</g>
</svg>
